<?xml version="1.0" encoding="utf-8"?>
<!-- Generator: Adobe Illustrator 24.1.0, SVG Export Plug-In . SVG Version: 6.00 Build 0)  -->
<svg version="1.1" id="Layer_1" xmlns="http://www.w3.org/2000/svg" xmlns:xlink="http://www.w3.org/1999/xlink" x="0px" y="0px"
	 viewBox="0 0 612 792" style="enable-background:new 0 0 612 792;" xml:space="preserve">
<style type="text/css">
	.st0{fill:#FFFFFF;stroke:#2BB673;stroke-width:0.25;stroke-miterlimit:10;}
</style>
<g id="XMLID_11706_">
	<line id="XMLID_11799_" class="st0" x1="10.9" y1="-4.9" x2="10.9" y2="795.9"/>
	<line id="XMLID_11798_" class="st0" x1="25.9" y1="-4.9" x2="25.9" y2="795.9"/>
	<line id="XMLID_11797_" class="st0" x1="40.9" y1="-4.9" x2="40.9" y2="795.9"/>
	<line id="XMLID_11796_" class="st0" x1="55.9" y1="-4.9" x2="55.9" y2="795.9"/>
	<line id="XMLID_11795_" class="st0" x1="70.9" y1="-4.9" x2="70.9" y2="795.9"/>
	<line id="XMLID_11794_" class="st0" x1="85.9" y1="-4.9" x2="85.9" y2="795.9"/>
	<line id="XMLID_11793_" class="st0" x1="100.9" y1="-4.9" x2="100.9" y2="795.9"/>
	<line id="XMLID_11792_" class="st0" x1="115.9" y1="-4.9" x2="115.9" y2="795.9"/>
	<line id="XMLID_11791_" class="st0" x1="130.9" y1="-4.9" x2="130.9" y2="795.9"/>
	<line id="XMLID_11790_" class="st0" x1="145.9" y1="-4.9" x2="145.9" y2="795.9"/>
	<line id="XMLID_11789_" class="st0" x1="160.9" y1="-4.9" x2="160.9" y2="795.9"/>
	<line id="XMLID_11788_" class="st0" x1="175.9" y1="-4.9" x2="175.9" y2="795.9"/>
	<line id="XMLID_11787_" class="st0" x1="190.9" y1="-4.9" x2="190.9" y2="795.9"/>
	<line id="XMLID_11786_" class="st0" x1="205.9" y1="-4.9" x2="205.9" y2="795.9"/>
	<line id="XMLID_11785_" class="st0" x1="220.9" y1="-4.9" x2="220.9" y2="795.9"/>
	<line id="XMLID_11784_" class="st0" x1="235.9" y1="-4.9" x2="235.9" y2="795.9"/>
	<line id="XMLID_11783_" class="st0" x1="250.9" y1="-4.9" x2="250.9" y2="795.9"/>
	<line id="XMLID_11782_" class="st0" x1="265.9" y1="-4.9" x2="265.9" y2="795.9"/>
	<line id="XMLID_11781_" class="st0" x1="280.9" y1="-4.9" x2="280.9" y2="795.9"/>
	<line id="XMLID_11780_" class="st0" x1="295.9" y1="-4.9" x2="295.9" y2="795.9"/>
	<line id="XMLID_11779_" class="st0" x1="310.9" y1="-4.9" x2="310.9" y2="795.9"/>
	<line id="XMLID_11778_" class="st0" x1="325.9" y1="-4.9" x2="325.9" y2="795.9"/>
	<line id="XMLID_11777_" class="st0" x1="340.9" y1="-4.9" x2="340.9" y2="795.9"/>
	<line id="XMLID_11776_" class="st0" x1="355.9" y1="-4.9" x2="355.9" y2="795.9"/>
	<line id="XMLID_11775_" class="st0" x1="370.9" y1="-4.9" x2="370.9" y2="795.9"/>
	<line id="XMLID_11774_" class="st0" x1="385.9" y1="-4.9" x2="385.9" y2="795.9"/>
	<line id="XMLID_11773_" class="st0" x1="400.9" y1="-4.9" x2="400.9" y2="795.9"/>
	<line id="XMLID_11772_" class="st0" x1="415.9" y1="-4.9" x2="415.9" y2="795.9"/>
	<line id="XMLID_11771_" class="st0" x1="430.9" y1="-4.9" x2="430.9" y2="795.9"/>
	<line id="XMLID_11770_" class="st0" x1="445.9" y1="-4.9" x2="445.9" y2="795.9"/>
	<line id="XMLID_11769_" class="st0" x1="460.9" y1="-4.9" x2="460.9" y2="795.9"/>
	<line id="XMLID_11768_" class="st0" x1="475.9" y1="-4.9" x2="475.9" y2="795.9"/>
	<line id="XMLID_11767_" class="st0" x1="490.9" y1="-4.9" x2="490.9" y2="795.9"/>
	<line id="XMLID_11766_" class="st0" x1="505.9" y1="-4.9" x2="505.9" y2="795.9"/>
	<line id="XMLID_11765_" class="st0" x1="520.9" y1="-4.9" x2="520.9" y2="795.9"/>
	<line id="XMLID_11764_" class="st0" x1="535.9" y1="-4.9" x2="535.9" y2="795.9"/>
	<line id="XMLID_11763_" class="st0" x1="550.9" y1="-4.9" x2="550.9" y2="795.9"/>
	<line id="XMLID_11762_" class="st0" x1="565.9" y1="-4.9" x2="565.9" y2="795.9"/>
	<line id="XMLID_11761_" class="st0" x1="580.9" y1="-4.9" x2="580.9" y2="795.9"/>
	<line id="XMLID_11760_" class="st0" x1="595.9" y1="-4.9" x2="595.9" y2="795.9"/>
	<line id="XMLID_11759_" class="st0" x1="-0.9" y1="-2.3" x2="612.4" y2="-2.3"/>
	<line id="XMLID_11758_" class="st0" x1="-0.9" y1="12.7" x2="612.4" y2="12.7"/>
	<line id="XMLID_11757_" class="st0" x1="-0.9" y1="27.7" x2="612.4" y2="27.7"/>
	<line id="XMLID_11756_" class="st0" x1="-0.9" y1="42.7" x2="612.4" y2="42.7"/>
	<line id="XMLID_11755_" class="st0" x1="-0.9" y1="57.7" x2="612.4" y2="57.7"/>
	<line id="XMLID_11754_" class="st0" x1="-0.9" y1="72.7" x2="612.4" y2="72.7"/>
	<line id="XMLID_11753_" class="st0" x1="-0.9" y1="87.7" x2="612.4" y2="87.7"/>
	<line id="XMLID_11752_" class="st0" x1="-0.9" y1="102.7" x2="612.4" y2="102.7"/>
	<line id="XMLID_11751_" class="st0" x1="-0.9" y1="117.7" x2="612.4" y2="117.7"/>
	<line id="XMLID_11750_" class="st0" x1="-0.9" y1="132.7" x2="612.4" y2="132.7"/>
	<line id="XMLID_11749_" class="st0" x1="-0.9" y1="147.7" x2="612.4" y2="147.7"/>
	<line id="XMLID_11748_" class="st0" x1="-0.9" y1="162.7" x2="612.4" y2="162.7"/>
	<line id="XMLID_11747_" class="st0" x1="-0.9" y1="177.7" x2="612.4" y2="177.7"/>
	<line id="XMLID_11746_" class="st0" x1="-0.9" y1="192.7" x2="612.4" y2="192.7"/>
	<line id="XMLID_11745_" class="st0" x1="-0.9" y1="207.7" x2="612.4" y2="207.7"/>
	<line id="XMLID_11744_" class="st0" x1="-0.9" y1="222.7" x2="612.4" y2="222.7"/>
	<line id="XMLID_11743_" class="st0" x1="-0.9" y1="237.7" x2="612.4" y2="237.7"/>
	<line id="XMLID_11742_" class="st0" x1="-0.9" y1="252.7" x2="612.4" y2="252.7"/>
	<line id="XMLID_11741_" class="st0" x1="-0.9" y1="267.7" x2="612.4" y2="267.7"/>
	<line id="XMLID_11740_" class="st0" x1="-0.9" y1="282.7" x2="612.4" y2="282.7"/>
	<line id="XMLID_11739_" class="st0" x1="-0.9" y1="297.7" x2="612.4" y2="297.7"/>
	<line id="XMLID_11738_" class="st0" x1="-0.9" y1="312.7" x2="612.4" y2="312.7"/>
	<line id="XMLID_11737_" class="st0" x1="-0.9" y1="327.7" x2="612.4" y2="327.7"/>
	<line id="XMLID_11736_" class="st0" x1="-0.9" y1="342.7" x2="612.4" y2="342.7"/>
	<line id="XMLID_11735_" class="st0" x1="-0.9" y1="357.7" x2="612.4" y2="357.7"/>
	<line id="XMLID_11734_" class="st0" x1="-0.9" y1="372.7" x2="612.4" y2="372.7"/>
	<line id="XMLID_11733_" class="st0" x1="-0.9" y1="387.7" x2="612.4" y2="387.7"/>
	<line id="XMLID_11732_" class="st0" x1="-0.9" y1="402.7" x2="612.4" y2="402.7"/>
	<line id="XMLID_11731_" class="st0" x1="-0.9" y1="417.7" x2="612.4" y2="417.7"/>
	<line id="XMLID_11730_" class="st0" x1="-0.9" y1="432.7" x2="612.4" y2="432.7"/>
	<line id="XMLID_11729_" class="st0" x1="-0.9" y1="447.7" x2="612.4" y2="447.7"/>
	<line id="XMLID_11728_" class="st0" x1="-0.9" y1="462.7" x2="612.4" y2="462.7"/>
	<line id="XMLID_11727_" class="st0" x1="-0.9" y1="477.7" x2="612.4" y2="477.7"/>
	<line id="XMLID_11726_" class="st0" x1="-0.9" y1="492.7" x2="612.4" y2="492.7"/>
	<line id="XMLID_11725_" class="st0" x1="-0.9" y1="507.7" x2="612.4" y2="507.7"/>
	<line id="XMLID_11724_" class="st0" x1="-0.9" y1="522.7" x2="612.4" y2="522.7"/>
	<line id="XMLID_11723_" class="st0" x1="-0.9" y1="537.7" x2="612.4" y2="537.7"/>
	<line id="XMLID_11722_" class="st0" x1="-0.9" y1="552.7" x2="612.4" y2="552.7"/>
	<line id="XMLID_11721_" class="st0" x1="-0.9" y1="567.7" x2="612.4" y2="567.7"/>
	<line id="XMLID_11720_" class="st0" x1="-0.9" y1="582.7" x2="612.4" y2="582.7"/>
	<line id="XMLID_11719_" class="st0" x1="-0.9" y1="597.7" x2="612.4" y2="597.7"/>
	<line id="XMLID_11718_" class="st0" x1="-0.9" y1="612.7" x2="612.4" y2="612.7"/>
	<line id="XMLID_11717_" class="st0" x1="-0.9" y1="627.7" x2="612.4" y2="627.7"/>
	<line id="XMLID_11716_" class="st0" x1="-0.9" y1="642.7" x2="612.4" y2="642.7"/>
	<line id="XMLID_11715_" class="st0" x1="-0.9" y1="657.7" x2="612.4" y2="657.7"/>
	<line id="XMLID_11714_" class="st0" x1="-0.9" y1="672.7" x2="612.4" y2="672.7"/>
	<line id="XMLID_11713_" class="st0" x1="-0.9" y1="687.7" x2="612.4" y2="687.7"/>
	<line id="XMLID_11712_" class="st0" x1="-0.9" y1="702.7" x2="612.4" y2="702.7"/>
	<line id="XMLID_11711_" class="st0" x1="-0.9" y1="717.7" x2="612.4" y2="717.7"/>
	<line id="XMLID_11710_" class="st0" x1="-0.9" y1="732.7" x2="612.4" y2="732.7"/>
	<line id="XMLID_11709_" class="st0" x1="-0.9" y1="747.7" x2="612.4" y2="747.7"/>
	<line id="XMLID_11708_" class="st0" x1="-0.9" y1="762.7" x2="612.4" y2="762.7"/>
	<line id="XMLID_11707_" class="st0" x1="-0.9" y1="777.7" x2="612.4" y2="777.7"/>
</g>
</svg>
