<?xml version="1.0" encoding="utf-8"?>
<!-- Generator: Adobe Illustrator 24.1.0, SVG Export Plug-In . SVG Version: 6.00 Build 0)  -->
<svg version="1.1" id="Layer_1" xmlns="http://www.w3.org/2000/svg" xmlns:xlink="http://www.w3.org/1999/xlink" x="0px" y="0px"
	 viewBox="0 0 424.7 275.5" style="enable-background:new 0 0 424.7 275.5;" xml:space="preserve">
<g id="XMLID_11702_">
	<g id="XMLID_15_">
		<path id="XMLID_24_" d="M60,76.5H63c1.7,4.7,2.7,11.1,2.9,19.1c5.4-6.4,11.1-11.2,17.1-14.4c6-3.2,12.2-4.8,18.7-4.8
			c7.4,0,13.5,1.5,18.2,4.6c4.7,3.1,7.8,6.9,9.1,11.4c1.4,4.5,2,11,2,19.7v29c0,10.7,0.2,17.3,0.6,19.6c0.4,2.3,1.6,4.1,3.6,5.3
			c2,1.2,5.7,1.8,11,1.8v5.2H98.8v-5.2h2.2c5.4,0,9-0.8,10.6-2.4c1.7-1.6,2.6-3.4,2.8-5.6c0.2-2.1,0.3-8.3,0.3-18.7v-29.9
			c0-7.3-0.4-12.6-1.1-15.7c-0.7-3.1-2.6-5.9-5.8-8.3c-3.1-2.4-7.1-3.6-12-3.6c-5.5,0-10.8,1.6-15.8,4.9c-5,3.3-9.8,8.2-14.2,14.8
			v37.8c0,10.7,0.2,17.3,0.6,19.6c0.4,2.3,1.6,4.1,3.6,5.3c2,1.2,5.7,1.8,11.2,1.8v5.2H34.5v-5.2c5.2,0,8.8-0.5,10.9-1.6
			c2-1.1,3.3-2.7,3.8-4.8c0.5-2.2,0.7-8.9,0.7-20.2v-27.6c0-10.8-0.2-17.3-0.6-19.7c-0.4-2.3-1.6-4-3.6-5.2c-2-1.2-5.7-1.8-11.2-1.8
			v-5.2C42.8,80.8,51.3,79.1,60,76.5z"/>
		<path id="XMLID_21_" d="M188.6,76.5v64.7c0,9.9,0.2,16.1,0.5,18.7c0.3,2.6,1.4,4.5,3.3,5.9c1.9,1.4,5.2,2,10.1,2h2.4v5.2h-50v-5.2
			h3.9c5.4,0,8.9-0.8,10.5-2.3c1.6-1.5,2.6-3.4,2.8-5.6c0.3-2.2,0.4-8.4,0.4-18.7v-28.1c0-10.9-0.5-17.5-1.5-19.9
			c-1-2.4-2.4-3.9-4.1-4.5c-1.7-0.6-4.7-0.9-8.9-0.9h-3.1v-5.2c13.4-1.4,23.9-3.4,31.3-6H188.6z M166.8,29.2c0-3.2,1.2-6,3.5-8.4
			c2.3-2.3,5.1-3.5,8.3-3.5c3.2,0,6,1.2,8.3,3.5c2.3,2.3,3.4,5.1,3.4,8.4c0,3.3-1.1,6.2-3.4,8.5c-2.3,2.3-5,3.5-8.3,3.5
			c-3.2,0-6-1.2-8.3-3.5C167.9,35.3,166.8,32.5,166.8,29.2z"/>
		<path id="XMLID_19_" d="M293.3,150.4h5c-5.1,17.6-18,26.4-38.5,26.4c-13.2,0-24.3-4.5-33.4-13.5c-9-9-13.5-20.9-13.5-35.7
			c0-15.2,4.9-27.5,14.6-36.9c9.7-9.4,21.3-14.2,34.6-14.2c8,0,15.4,1.8,22.1,5.3c6.7,3.5,10.1,7.8,10.1,12.9c0,1.9-0.6,3.7-1.9,5.3
			c-1.2,1.7-3,2.5-5.4,2.5c-5,0-8-2.9-9.2-8.7c-0.9-4.4-2.3-7.4-4.2-9.2c-2-1.7-5.8-2.6-11.4-2.6c-10.1,0-17.7,3.5-22.8,10.5
			s-7.6,17.6-7.6,31.7c0,14.6,2.7,26,8.2,34.2c5.5,8.2,13.8,12.3,24.9,12.3C279.7,170.8,289.2,164,293.3,150.4z"/>
		<path id="XMLID_16_" d="M391.8,111.7h-64.7c-0.3,4.5-0.5,7.8-0.5,10c0,16.3,2.5,28.6,7.6,36.8c5.1,8.2,12.7,12.3,22.8,12.3
			c13.7,0,23.5-6.2,29.2-18.5h5.4c-2.4,7.7-7.2,13.7-14.4,18.1c-7.2,4.3-15,6.5-23.4,6.5c-7.9,0-15.3-2-22.3-5.9
			c-7-4-12.7-9.6-17.2-16.8c-4.5-7.2-6.7-16-6.7-26.4c0-14.7,4.3-26.8,12.9-36.5c8.6-9.7,19.4-14.6,32.3-14.6
			c12.2,0,21.6,3.7,28.2,11.1C387.9,95,391.4,103,391.8,111.7z M371.9,107.1c0.2-1.7,0.3-3.3,0.3-4.6c0-6.6-1.9-11.8-5.8-15.5
			c-3.9-3.7-8.7-5.5-14.3-5.5c-13.7,0-21.9,8.5-24.6,25.6H371.9z"/>
	</g>
	<g id="XMLID_1_">
		<path id="XMLID_13_" d="M73.6,241.8l-29.1-38.5v28.5c0,2.4,0.1,3.9,0.3,4.7c0.2,0.7,0.9,1.4,2,2.1c1.1,0.6,2.7,0.9,4.9,0.9v1.4
			H36.5v-1.4c2-0.1,3.5-0.5,4.5-1.1s1.6-1.2,1.8-1.9c0.2-0.7,0.3-2.2,0.3-4.7V210c0-3.2-0.1-5.3-0.4-6.3c-0.3-1.1-0.8-1.8-1.4-2.1
			c-0.6-0.3-2.1-0.5-4.3-0.5v-1.4h12.1l24.3,32.2v-24.6c0-1.8-0.2-3.1-0.6-3.8c-0.4-0.7-1.1-1.3-2.3-1.7c-1.2-0.4-2.5-0.6-4.2-0.6
			v-1.4h14.9v1.4c-1.7,0.1-3.1,0.5-4.1,1s-1.6,1.2-1.9,1.9c-0.3,0.7-0.4,2-0.4,3.7v34H73.6z"/>
		<path id="XMLID_11_" d="M132.7,228.1h1.5l-0.9,12.8h-34v-1.4h0.8c2,0,3.4-0.3,4-0.8c0.6-0.5,1-1.2,1.1-2.1c0.2-0.8,0.2-3,0.2-6.4
			V210c0-3.1-0.1-5.2-0.3-6.2c-0.2-1-0.6-1.7-1.2-2.1c-0.6-0.4-1.9-0.6-3.9-0.6v-1.4h29.4l1,10.2H129c-0.6-2.9-1.4-4.9-2.4-6.1
			s-2.1-2-3.4-2.3c-1.3-0.3-3.4-0.5-6.2-0.5h-5.7v17.2h4.4c2,0,3.4-0.2,4.2-0.5c0.8-0.3,1.3-0.9,1.6-1.6c0.3-0.7,0.4-2.1,0.4-4.1
			h1.4v14.1h-1.4c0-2.3-0.2-3.8-0.6-4.6c-0.4-0.8-0.9-1.3-1.7-1.5c-0.7-0.2-2-0.3-3.7-0.3h-4.5v9.7c0,4.9,0.3,7.7,0.9,8.6
			c0.6,0.9,2.3,1.3,5.1,1.3h3.1c2.2,0,3.9-0.3,5.3-0.8s2.7-1.7,4-3.4C131,233.5,132,231.1,132.7,228.1z"/>
		<path id="XMLID_9_" d="M194.2,241.8h-1.4L180.3,208l-10.9,33.9h-1.5l-9.9-32c-0.9-2.9-1.5-4.8-1.9-5.8s-0.9-1.7-1.5-2.1
			s-1.7-0.7-3.2-0.8v-1.4h15.4v1.4c-1.9,0.1-3.1,0.4-3.6,0.8s-0.8,1-0.8,1.7c0,0.7,0.4,2.4,1.3,5.1l7.3,24l10.7-33h1.7l12.1,33
			l6.3-21.8c0.8-3,1.2-4.9,1.2-5.8c0-2.7-1.4-4-4.3-4v-1.4H210v1.4c-1.7,0.1-2.9,0.7-3.7,1.8c-0.8,1.1-1.8,3.7-3.1,7.9L194.2,241.8z
			"/>
		<path id="XMLID_7_" d="M224.7,209.6h-1.4l0.2-9.9h39.9l0.2,9.9h-1.3c-0.5-2.7-1.1-4.7-1.9-5.9c-0.8-1.2-1.7-1.9-2.6-2.2
			c-0.9-0.3-2.5-0.4-4.8-0.4h-6.6v29c0,3.2,0.1,5.3,0.2,6.3c0.2,1,0.6,1.8,1.2,2.2c0.7,0.5,1.9,0.7,3.8,0.7h2v1.4h-20.5v-1.4h2.1
			c1.8,0,3-0.2,3.7-0.7c0.7-0.4,1.1-1.1,1.3-2.1c0.2-0.9,0.3-3.1,0.3-6.6v-29h-6.1c-2.6,0-4.4,0.1-5.3,0.4c-0.9,0.3-1.8,1-2.6,2.3
			C225.7,205.1,225.1,207,224.7,209.6z"/>
		<path id="XMLID_4_" d="M278.2,220c0-6.3,2.1-11.4,6.4-15.3c4.2-3.8,9.5-5.8,15.9-5.8c6.4,0,11.8,1.9,16.1,5.7
			c4.3,3.8,6.4,9,6.4,15.6c0,6.4-2.1,11.5-6.2,15.5c-4.1,3.9-9.5,5.9-16.2,5.9c-6.5,0-11.9-2-16.1-5.9
			C280.2,231.8,278.2,226.5,278.2,220z M285.1,220.2c0,6.6,1.3,11.6,4,14.9c2.6,3.3,6.6,5,11.9,5c4.6,0,8.3-1.7,11-5
			c2.7-3.3,4-8.3,4-14.8c0-6.4-1.3-11.3-4-14.7c-2.6-3.4-6.5-5.1-11.5-5.1c-5,0-8.7,1.7-11.4,5C286.4,208.8,285.1,213.7,285.1,220.2
			z"/>
		<path id="XMLID_2_" d="M378.3,241.8l-29.1-38.5v28.5c0,2.4,0.1,3.9,0.3,4.7c0.2,0.7,0.9,1.4,2,2.1c1.1,0.6,2.7,0.9,4.9,0.9v1.4
			h-15.3v-1.4c2-0.1,3.5-0.5,4.5-1.1c1-0.6,1.6-1.2,1.8-1.9c0.2-0.7,0.3-2.2,0.3-4.7V210c0-3.2-0.1-5.3-0.4-6.3s-0.8-1.8-1.4-2.1
			c-0.6-0.3-2.1-0.5-4.3-0.5v-1.4h12.1l24.3,32.2v-24.6c0-1.8-0.2-3.1-0.6-3.8s-1.1-1.3-2.3-1.7c-1.2-0.4-2.5-0.6-4.2-0.6v-1.4H386
			v1.4c-1.7,0.1-3.1,0.5-4.1,1c-1,0.5-1.6,1.2-1.9,1.9c-0.3,0.7-0.4,2-0.4,3.7v34H378.3z"/>
	</g>
</g>
</svg>
